<svg  xmlns="http://www.w3.org/2000/svg" viewBox="0 0 82 28"><g clip-path="url(#official/betclic_fill__a)"><path d="M0 0h82v28H0V0Z" fill="#D2161E"/><path fill-rule="evenodd" clip-rule="evenodd" d="m36.439 7.71 4.129-1.84-.976 4.596h2.471l-.645 3.101h-2.47l-.424 2.03c-.546 2.618-.593 2.846-.593 3.072 0 .505.23.713.645.713.532 0 1.087-.275 1.34-.506l.415 2.71c-.809.643-1.962 1.034-3.025 1.034-1.962 0-3.256-1.308-3.256-3.125 0-.576.105-1.066 1.04-5.405l.113-.523h-1.591l.671-3.1h1.572l.584-2.758Zm23.093-1.151h-3.709l-3.288 15.787h3.709l3.288-15.787Zm4.474 3.907h-3.727l-2.494 11.88h3.727l2.493-11.88Zm-.92-5.286c-1.154 0-2.264.988-2.264 2.229 0 1.033.786 1.863 1.916 1.86 1.13 0 2.193-1.034 2.193-2.205 0-1.034-.782-1.884-1.845-1.884ZM15.708 6.56h-6.45l-3.3 15.784h7.022c3.256 0 6.165-1.86 6.165-4.848 0-1.448-.853-2.713-2.146-3.332C18.8 13.36 20 11.798 20 10.005c0-1.998-1.732-3.446-4.293-3.446Zm-.412 10.34c0 1.218-1.11 2.115-2.564 2.115h-2.158l.669-3.172h2.392c1.106 0 1.661.368 1.661 1.057Zm.552-6.068c0 1.127-1.04 1.977-2.4 1.977v-.003h-1.56l.602-2.917h1.81c1.017 0 1.525.324 1.548.943Zm33.197-.642c-3.901 0-7.756 3.215-7.756 7.122 0 2.944 2.38 5.31 5.563 5.31 2.01 0 3.764-.713 5.242-2.068l-2.287-2.345c-.668.642-1.731 1.17-2.677 1.17-1.224 0-2.147-.943-2.147-2.16 0-1.86 1.846-3.79 3.832-3.79.692 0 1.544.32 1.915.896l2.862-1.907c-.923-1.265-2.447-2.228-4.547-2.228Zm22.448 0c-3.901 0-7.756 3.215-7.756 7.122 0 2.944 2.38 5.31 5.563 5.31 2.01 0 3.764-.713 5.242-2.068l-2.287-2.345c-.668.642-1.731 1.17-2.678 1.17-1.223 0-2.146-.943-2.146-2.16 0-1.86 1.846-3.79 3.831-3.79.692 0 1.545.32 1.916.896l2.862-1.907c-.923-1.265-2.447-2.228-4.547-2.228Zm-47.299 8.687a2.26 2.26 0 0 0 1.451.506c.964 0 1.916-.474 2.634-1.166l2.343 2.4c-1.434 1.239-3.318 2.01-5.207 2.01-1.971 0-3.624-.882-4.614-2.237a5.16 5.16 0 0 1-.914-2.15 5.338 5.338 0 0 1-.082-.922c0-3.928 3.855-7.123 7.733-7.123 2.102 0 3.84 1 4.8 2.5.421.654.693 1.405.78 2.21l-3.773 1.68-5.15 2.292Zm4.819-4.704c-.392-.456-.985-.742-1.683-.742-1.795 0-3.5 1.527-3.84 3.2l5.523-2.458Z" fill="#ffffff"/></g><defs><clipPath id="official/betclic_fill__a"><path fill="#ffffff" d="M0 0h82v28H0z"/></clipPath></defs></svg>